<svg width="28" height="28" viewBox="0 0 28 28" fill="none" xmlns="http://www.w3.org/2000/svg">
<path d="M14 2.25C14.96 2.24991 15.8835 2.618 16.5802 3.27844C17.2769 3.93888 17.6938 4.84137 17.745 5.8L17.75 6H23.25C23.44 6.00006 23.6229 6.07224 23.7618 6.20197C23.9006 6.3317 23.9851 6.5093 23.998 6.69888C24.011 6.88846 23.9515 7.07589 23.8316 7.2233C23.7117 7.37071 23.5402 7.4671 23.352 7.493L23.25 7.5H22.191L20.971 22.553C20.8949 23.4921 20.4681 24.3681 19.7754 25.0068C19.0828 25.6455 18.1752 26.0001 17.233 26H10.767C9.82484 26.0001 8.91719 25.6455 8.22457 25.0068C7.53195 24.3681 7.10513 23.4921 7.029 22.553L5.808 7.5H4.75C4.56876 7.49999 4.39366 7.43436 4.25707 7.31523C4.12048 7.19611 4.03165 7.03155 4.007 6.852L4 6.75C4.00001 6.56876 4.06564 6.39366 4.18477 6.25707C4.30389 6.12048 4.46845 6.03165 4.648 6.007L4.75 6H10.25C10.25 5.00544 10.6451 4.05161 11.3483 3.34835C12.0516 2.64509 13.0054 2.25 14 2.25V2.25ZM20.687 7.5H7.313L8.524 22.432C8.56973 22.9954 8.82587 23.521 9.24148 23.9042C9.65709 24.2874 10.2017 24.5001 10.767 24.5H17.233C17.7983 24.5001 18.3429 24.2874 18.7585 23.9042C19.1741 23.521 19.4303 22.9954 19.476 22.432L20.686 7.5H20.687ZM11.75 11.25C11.9312 11.25 12.1063 11.3156 12.2429 11.4348C12.3795 11.5539 12.4684 11.7184 12.493 11.898L12.5 12V20C12.4999 20.19 12.4278 20.3729 12.298 20.5118C12.1683 20.6506 11.9907 20.7351 11.8011 20.748C11.6115 20.761 11.4241 20.7015 11.2767 20.5816C11.1293 20.4617 11.0329 20.2902 11.007 20.102L11 20V12C11 11.8011 11.079 11.6103 11.2197 11.4697C11.3603 11.329 11.5511 11.25 11.75 11.25V11.25ZM16.25 11.25C16.4312 11.25 16.6063 11.3156 16.7429 11.4348C16.8795 11.5539 16.9684 11.7184 16.993 11.898L17 12V20C16.9999 20.19 16.9278 20.3729 16.798 20.5118C16.6683 20.6506 16.4907 20.7351 16.3011 20.748C16.1115 20.761 15.9241 20.7015 15.7767 20.5816C15.6293 20.4617 15.5329 20.2902 15.507 20.102L15.5 20V12C15.5 11.8011 15.579 11.6103 15.7197 11.4697C15.8603 11.329 16.0511 11.25 16.25 11.25ZM14 3.75C13.4299 3.74993 12.881 3.9663 12.4642 4.35537C12.0475 4.74444 11.794 5.27721 11.755 5.846L11.75 6H16.25L16.245 5.846C16.206 5.27721 15.9525 4.74444 15.5358 4.35537C15.119 3.9663 14.5701 3.74993 14 3.75V3.75Z" fill="white"/>
</svg>
